<svg width="17" height="18" viewBox="0 0 17 18" fill="none" xmlns="http://www.w3.org/2000/svg">
<path fill-rule="evenodd" clip-rule="evenodd" d="M8.3 3.19961H2C1.46957 3.19961 0.960859 3.41032 0.585786 3.7854C0.210714 4.16047 0 4.66918 0 5.19961V15.9996C0 16.53 0.210714 17.0387 0.585786 17.4138C0.960859 17.7889 1.46957 17.9996 2 17.9996H13C14.1 17.9996 15 16.9996 15 15.8996V7.99961L11 12.1996C10.7 12.4996 10.3 12.7996 9.8 12.8996L7.1 13.4996C5.4 13.7996 3.8 12.1996 4.1 10.3996L4.7 7.49961C4.8 6.99961 5.1 6.49961 5.4 6.19961L8.4 3.09961L8.3 3.19961Z" fill="#05A20C"/>
<path fill-rule="evenodd" clip-rule="evenodd" d="M16.8 1.29969C16.6119 0.823355 16.2563 0.432157 15.8 0.199687C15.4352 0.0396632 15.0308 -0.00775505 14.6389 0.0635114C14.2469 0.134778 13.8852 0.321481 13.6 0.599687L13 1.19969L15.9 4.19969L16.4 3.59969C16.5941 3.40166 16.747 3.16715 16.85 2.90969C16.953 2.65224 17.004 2.37694 17 2.09969C17 1.89969 17 1.59969 16.8 1.29969ZM14.4 5.69969L11.6 2.69969L6.8 7.69969L6.7 7.99969L6 10.9997C6 11.2997 6.3 11.6997 6.6 11.5997L9.3 10.9997L9.6 10.8997L14.3 5.89969L14.4 5.69969Z" fill="#05A20C"/>
</svg>
