<svg width="32" height="32" viewBox="0 0 32 32" fill="none" xmlns="http://www.w3.org/2000/svg">
<path d="M15.9994 2.6665C13.3623 2.6665 10.7844 3.44849 8.59175 4.91358C6.3991 6.37866 4.69013 8.46104 3.68096 10.8974C2.67179 13.3337 2.40775 16.0146 2.92222 18.601C3.43669 21.1875 4.70656 23.5632 6.57126 25.4279C8.43597 27.2926 10.8117 28.5625 13.3982 29.077C15.9846 29.5914 18.6655 29.3274 21.1018 28.3182C23.5382 27.3091 25.6205 25.6001 27.0856 23.4074C28.5507 21.2148 29.3327 18.6369 29.3327 15.9998C29.3327 14.2489 28.9878 12.5151 28.3177 10.8974C27.6477 9.27972 26.6656 7.80986 25.4274 6.57175C24.1893 5.33363 22.7195 4.35151 21.1018 3.68144C19.4841 3.01138 17.7503 2.6665 15.9994 2.6665ZM15.9994 26.6665C13.8897 26.6665 11.8274 26.0409 10.0733 24.8688C8.31915 23.6968 6.95198 22.0309 6.14464 20.0818C5.33731 18.1327 5.12607 15.988 5.53765 13.9189C5.94922 11.8497 6.96512 9.94913 8.45688 8.45737C9.94864 6.96561 11.8493 5.9497 13.9184 5.53813C15.9875 5.12655 18.1322 5.33779 20.0813 6.14512C22.0304 6.95246 23.6963 8.31963 24.8684 10.0738C26.0404 11.8279 26.666 13.8902 26.666 15.9998C26.666 18.8288 25.5422 21.5419 23.5418 23.5423C21.5414 25.5427 18.8283 26.6665 15.9994 26.6665Z" fill="#F20000"/>
<path d="M16.0007 9.3335C14.6821 9.3335 13.3932 9.72449 12.2969 10.457C11.2005 11.1896 10.346 12.2308 9.84146 13.4489C9.33687 14.6671 9.20485 16.0076 9.46209 17.3008C9.71932 18.594 10.3543 19.7819 11.2866 20.7142C12.219 21.6466 13.4068 22.2815 14.7001 22.5387C15.9933 22.796 17.3337 22.6639 18.5519 22.1594C19.7701 21.6548 20.8112 20.8003 21.5438 19.704C22.2763 18.6076 22.6673 17.3187 22.6673 16.0002C22.6673 14.2321 21.9649 12.5364 20.7147 11.2861C19.4645 10.0359 17.7688 9.3335 16.0007 9.3335Z" fill="#F20000"/>
</svg>
