<svg width="17" height="17" viewBox="0 0 17 17" fill="none" xmlns="http://www.w3.org/2000/svg">
<g clip-path="url(#clip0_119_509)">
<path fill-rule="evenodd" clip-rule="evenodd" d="M0 1.82143C0 1.33836 0.1919 0.875068 0.533484 0.533484C0.875068 0.1919 1.33836 0 1.82143 0L10.3214 0C10.8045 0 11.2678 0.1919 11.6094 0.533484C11.951 0.875068 12.1429 1.33836 12.1429 1.82143V4.17593C11.6502 4.57057 11.3305 5.14154 11.2516 5.76786H6.98214C6.62335 5.76786 6.26808 5.83853 5.9366 5.97583C5.60512 6.11313 5.30393 6.31438 5.05023 6.56808C4.79652 6.82179 4.59528 7.12298 4.45797 7.45445C4.32067 7.78593 4.25 8.14121 4.25 8.5C4.25 8.85879 4.32067 9.21407 4.45797 9.54555C4.59528 9.87702 4.79652 10.1782 5.05023 10.4319C5.30393 10.6856 5.60512 10.8869 5.9366 11.0242C6.26808 11.1615 6.62335 11.2321 6.98214 11.2321H11.2516C11.3305 11.8585 11.6502 12.4294 12.1429 12.8241V15.1786C12.1429 15.6616 11.951 16.1249 11.6094 16.4665C11.2678 16.8081 10.8045 17 10.3214 17H1.82143C1.33836 17 0.875068 16.8081 0.533484 16.4665C0.1919 16.1249 0 15.6616 0 15.1786L0 1.82143ZM13.3122 5.22993C13.1458 5.29886 13.0035 5.41561 12.9035 5.5654C12.8034 5.71518 12.75 5.89129 12.75 6.07143V7.28571H6.98214C6.6601 7.28571 6.35124 7.41365 6.12351 7.64137C5.89579 7.86909 5.76786 8.17795 5.76786 8.5C5.76786 8.82205 5.89579 9.13091 6.12351 9.35863C6.35124 9.58635 6.6601 9.71429 6.98214 9.71429H12.75V10.9286C12.7502 11.1086 12.8037 11.2845 12.9037 11.4341C13.0038 11.5837 13.146 11.7003 13.3123 11.7692C13.4786 11.8381 13.6616 11.8561 13.8382 11.821C14.0147 11.786 14.1769 11.6993 14.3043 11.5721L16.7329 9.14357C16.9034 8.97281 16.9992 8.74134 16.9992 8.5C16.9992 8.25866 16.9034 8.02719 16.7329 7.85643L14.3043 5.42786C14.177 5.30049 14.0148 5.21371 13.8383 5.17848C13.6617 5.14325 13.4786 5.16115 13.3122 5.22993Z" fill="#F20000"/>
</g>
<defs>
<clipPath id="clip0_119_509">
<rect width="17" height="17" fill="white"/>
</clipPath>
</defs>
</svg>
